{
	"asset":{
		"generator":"Khronos glTF Blender I/O v3.5.30",
		"version":"2.0"
	},
	"scene":0,
	"scenes":[
		{
			"name":"Scene",
			"nodes":[
				0
			]
		}
	],
	"nodes":[
		{
			"mesh":0,
			"name":"Icosphere.001",
			"translation":[
				1.6451878547668457,
				2.9490082263946533,
				-0.7993565797805786
			]
		}
	],
	"materials":[
		{
			"doubleSided":true,
			"name":"Material",
			"pbrMetallicRoughness":{
				"baseColorFactor":[
					0.800000011920929,
					0.800000011920929,
					0.800000011920929,
					1
				],
				"metallicFactor":0,
				"roughnessFactor":0.5
			}
		}
	],
	"meshes":[
		{
			"name":"Icosphere.001",
			"primitives":[
				{
					"attributes":{
						"POSITION":0,
						"TEXCOORD_0":1,
						"NORMAL":2
					},
					"indices":3,
					"material":0
				}
			]
		}
	],
	"accessors":[
		{
			"bufferView":0,
			"componentType":5126,
			"count":1224,
			"max":[
				0.9510578513145447,
				2.3735249042510986,
				3.205660820007324
			],
			"min":[
				-4.677285671234131,
				-2.9490082263946533,
				-1.5309727191925049
			],
			"type":"VEC3"
		},
		{
			"bufferView":1,
			"componentType":5126,
			"count":1224,
			"type":"VEC2"
		},
		{
			"bufferView":2,
			"componentType":5126,
			"count":1224,
			"type":"VEC3"
		},
		{
			"bufferView":3,
			"componentType":5123,
			"count":1236,
			"type":"SCALAR"
		}
	],
	"bufferViews":[
		{
			"buffer":0,
			"byteLength":14688,
			"byteOffset":0,
			"target":34962
		},
		{
			"buffer":0,
			"byteLength":9792,
			"byteOffset":14688,
			"target":34962
		},
		{
			"buffer":0,
			"byteLength":14688,
			"byteOffset":24480,
			"target":34962
		},
		{
			"buffer":0,
			"byteLength":2472,
			"byteOffset":39168,
			"target":34963
		}
	],
	"buffers":[
		{
			"byteLength":41640,
			"uri":"data:application/octet-stream;base64,"
		}
	]
}
